<svg width="8" height="11" viewBox="0 0 8 11" fill="none" xmlns="http://www.w3.org/2000/svg">
<g opacity="0.9">
<path d="M3.99922 4.71455C4.44105 4.71455 4.79922 4.36276 4.79922 3.92881C4.79922 3.49486 4.44105 3.14307 3.99922 3.14307C3.55739 3.14307 3.19922 3.49486 3.19922 3.92881C3.19922 4.36276 3.55739 4.71455 3.99922 4.71455Z" fill="#1A0407" fill-opacity="0.6"/>
<path d="M4 0C1.7945 0 0 1.68567 0 3.75684C0 4.74319 0.45775 6.05489 1.3605 7.6556C2.0855 8.94078 2.92425 10.1029 3.3605 10.6812C3.43422 10.78 3.5306 10.8604 3.64184 10.9157C3.75307 10.9711 3.87603 11 4.00075 11C4.12547 11 4.24843 10.9711 4.35966 10.9157C4.4709 10.8604 4.56728 10.78 4.641 10.6812C5.0765 10.1029 5.916 8.94078 6.641 7.6556C7.54225 6.05538 8 4.74368 8 3.75684C8 1.68567 6.2055 0 4 0ZM4 5.50021C3.68355 5.50021 3.37421 5.40804 3.11109 5.23536C2.84797 5.06268 2.64289 4.81725 2.52179 4.5301C2.40069 4.24295 2.36901 3.92697 2.43074 3.62214C2.49248 3.3173 2.64487 3.03729 2.86863 2.81751C3.09239 2.59773 3.37749 2.44806 3.68786 2.38743C3.99823 2.32679 4.31993 2.35791 4.61229 2.47685C4.90466 2.5958 5.15454 2.79722 5.33035 3.05565C5.50616 3.31408 5.6 3.61791 5.6 3.92872C5.59954 4.34536 5.43082 4.74481 5.13086 5.03942C4.8309 5.33404 4.4242 5.49975 4 5.50021Z" fill="#1A0407" fill-opacity="0.6"/>
</g>
</svg>
