<svg width="52" height="45" viewBox="0 0 52 45" fill="none" xmlns="http://www.w3.org/2000/svg">
<path d="M26 44.1818C26 44.1818 1 30.4422 1 13.7583C1.00051 10.8095 2.04163 7.95188 3.94636 5.6713C5.85109 3.39072 8.50185 1.82794 11.448 1.24866C14.3941 0.669383 17.4537 1.10936 20.1066 2.4938C22.7596 3.87823 24.842 6.12166 26 8.84267L26 8.84269C27.1579 6.12168 29.2404 3.87825 31.8934 2.49381C34.5463 1.10937 37.6059 0.669385 40.552 1.24866C43.4981 1.82794 46.1489 3.39072 48.0536 5.6713C49.9584 7.95188 50.9995 10.8095 51 13.7583C51 30.4422 26 44.1818 26 44.1818Z" stroke="white" stroke-linecap="round" stroke-linejoin="round"/>
</svg>
