<svg width="74" height="74" viewBox="0 0 74 74" fill="none" xmlns="http://www.w3.org/2000/svg">
<circle cx="37" cy="37" r="37" fill="white" fill-opacity="0.2"/>
<path d="M38 61.1818C38 61.1818 13 47.4422 13 30.7583C13.0005 27.8095 14.0416 24.9519 15.9464 22.6713C17.8511 20.3907 20.5019 18.8279 23.448 18.2487C26.3941 17.6694 29.4537 18.1094 32.1066 19.4938C34.7596 20.8782 36.842 23.1217 38 25.8427L38 25.8427C39.1579 23.1217 41.2404 20.8782 43.8934 19.4938C46.5463 18.1094 49.6059 17.6694 52.552 18.2487C55.4981 18.8279 58.1489 20.3907 60.0536 22.6713C61.9584 24.9519 62.9995 27.8095 63 30.7583C63 47.4422 38 61.1818 38 61.1818Z" stroke="white" stroke-linecap="round" stroke-linejoin="round"/>
</svg>
