<svg width="80" height="80" viewBox="0 0 80 80" fill="none" xmlns="http://www.w3.org/2000/svg">
<path fill-rule="evenodd" clip-rule="evenodd" d="M80 40C80 62.0914 62.0914 80 40 80C17.9086 80 0 62.0914 0 40C0 17.9086 17.9086 0 40 0C62.0914 0 80 17.9086 80 40ZM27.5713 22.7148C27.5713 22.1626 28.019 21.7148 28.5713 21.7148H34.5713C35.1236 21.7148 35.5713 22.1626 35.5713 22.7148V57.2863C35.5713 57.8386 35.1236 58.2863 34.5713 58.2863H28.5713C28.019 58.2863 27.5713 57.8386 27.5713 57.2863V22.7148ZM45.4287 21.7148C44.8764 21.7148 44.4287 22.1626 44.4287 22.7148V57.2863C44.4287 57.8386 44.8764 58.2863 45.4287 58.2863H51.4287C51.981 58.2863 52.4287 57.8386 52.4287 57.2863V22.7148C52.4287 22.1626 51.981 21.7148 51.4287 21.7148H45.4287Z" fill="white"/>
</svg>
