<svg width="80" height="80" viewBox="0 0 80 80" fill="none" xmlns="http://www.w3.org/2000/svg">
<path fill-rule="evenodd" clip-rule="evenodd" d="M40 80C62.0914 80 80 62.0914 80 40C80 17.9086 62.0914 0 40 0C17.9086 0 0 17.9086 0 40C0 62.0914 17.9086 80 40 80ZM33.9021 25.1834L56.4017 38.9333C56.5845 39.045 56.7355 39.2017 56.8402 39.3885C56.945 39.5753 57 39.7858 57 40C57 40.2142 56.945 40.4247 56.8402 40.6115C56.7355 40.7983 56.5845 40.955 56.4017 41.0667L33.9021 54.8166C33.7126 54.9324 33.4957 54.9956 33.2736 54.9998C33.0515 55.0039 32.8324 54.9489 32.6387 54.8402C32.4449 54.7316 32.2837 54.5733 32.1714 54.3817C32.0592 54.19 32 53.9719 32 53.7499V26.2501C32 26.0281 32.0592 25.81 32.1714 25.6183C32.2837 25.4267 32.4449 25.2684 32.6387 25.1598C32.8324 25.0511 33.0515 24.9961 33.2736 25.0002C33.4957 25.0044 33.7126 25.0676 33.9021 25.1834Z" fill="white"/>
</svg>
