<svg width="17" height="17" viewBox="0 0 17 17" fill="none" xmlns="http://www.w3.org/2000/svg">
<path d="M8.5 14.875C12.0208 14.875 14.875 12.0208 14.875 8.5C14.875 4.97918 12.0208 2.125 8.5 2.125C4.97918 2.125 2.125 4.97918 2.125 8.5C2.125 12.0208 4.97918 14.875 8.5 14.875Z" fill="white"/>
<path d="M8.5 12.75C8.9401 12.75 9.29688 12.3932 9.29688 11.9531C9.29688 11.513 8.9401 11.1562 8.5 11.1562C8.0599 11.1562 7.70312 11.513 7.70312 11.9531C7.70312 12.3932 8.0599 12.75 8.5 12.75Z" fill="black"/>
<path d="M8.5 9.56299V9.03174C8.86775 9.03174 9.22724 8.92269 9.53301 8.71838C9.83879 8.51407 10.0771 8.22367 10.2178 7.88392C10.3586 7.54416 10.3954 7.1703 10.3236 6.80962C10.2519 6.44893 10.0748 6.11763 9.81478 5.85759C9.55474 5.59755 9.22343 5.42046 8.86275 5.34872C8.50206 5.27697 8.1282 5.31379 7.78845 5.45453C7.44869 5.59526 7.1583 5.83358 6.95399 6.13935C6.74968 6.44512 6.64062 6.80461 6.64062 7.17236" stroke="black" stroke-width="1.5" stroke-linecap="round" stroke-linejoin="round"/>
</svg>
