<svg width="26" height="23" viewBox="0 0 26 23" fill="none" xmlns="http://www.w3.org/2000/svg">
<path fill-rule="evenodd" clip-rule="evenodd" d="M14.1646 0.69697C13.9128 0.253444 13.5351 0 13.0315 0C12.5278 0 12.0872 0.253444 11.8354 0.69697L0.188862 21.0358C-0.062954 21.416 -0.062954 21.9229 0.188862 22.3664C0.440678 22.8099 0.818402 23 1.32203 23H24.678C25.1816 23 25.5593 22.8099 25.8111 22.3664C26.063 21.9229 26.063 21.416 25.8111 21.0358L14.1646 0.69697ZM12.9056 7.53995H13.0944C13.8499 7.53995 14.4165 8.11019 14.3535 8.87052L14.1017 14.5096C14.0387 15.0799 13.5981 15.4601 12.9685 15.4601C12.4019 15.4601 11.9613 15.0165 11.9613 14.5096L11.6465 8.87052C11.5835 8.11019 12.1501 7.53995 12.9056 7.53995ZM13.0315 16.5372C13.5981 16.5372 14.1017 17.0441 14.1017 17.6777C14.1017 18.3113 13.5981 18.8182 13.0315 18.8182C12.4019 18.8182 11.8983 18.3113 11.8983 17.6777C11.8983 17.0441 12.4019 16.5372 13.0315 16.5372Z" fill="white"/>
</svg>
