<svg width="38" height="39" viewBox="0 0 38 39" fill="none" xmlns="http://www.w3.org/2000/svg">
<path d="M31.6667 10H2.33333C1.59695 10 1 10.597 1 11.3333V35.3333C1 36.0697 1.59695 36.6667 2.33333 36.6667H31.6667C32.403 36.6667 33 36.0697 33 35.3333V11.3333C33 10.597 32.403 10 31.6667 10Z" stroke="white" stroke-linecap="round" stroke-linejoin="round"/>
<path d="M1 30.0003L9.3905 21.6098C9.51431 21.486 9.6613 21.3877 9.82306 21.3207C9.98483 21.2537 10.1582 21.2192 10.3333 21.2192C10.5084 21.2192 10.6818 21.2537 10.8436 21.3207C11.0053 21.3877 11.1523 21.486 11.2761 21.6098L18.7238 29.0575C18.8476 29.1813 18.9946 29.2795 19.1564 29.3465C19.3182 29.4135 19.4915 29.448 19.6666 29.448C19.8417 29.448 20.0151 29.4135 20.1769 29.3465C20.3387 29.2795 20.4856 29.1813 20.6095 29.0575L24.0572 25.6098C24.181 25.4859 24.328 25.3877 24.4897 25.3207C24.6515 25.2537 24.8249 25.2192 25 25.2192C25.1751 25.2192 25.3485 25.2537 25.5102 25.3207C25.672 25.3877 25.819 25.4859 25.9428 25.6098L33 32.667" stroke="white" stroke-linecap="round" stroke-linejoin="round"/>
<path d="M21.668 20.6665C22.7725 20.6665 23.668 19.7711 23.668 18.6665C23.668 17.5619 22.7725 16.6665 21.668 16.6665C20.5634 16.6665 19.668 17.5619 19.668 18.6665C19.668 19.7711 20.5634 20.6665 21.668 20.6665Z" fill="white"/>
<path d="M29.5 14.875C33.0208 14.875 35.875 12.0208 35.875 8.5C35.875 4.97918 33.0208 2.125 29.5 2.125C25.9792 2.125 23.125 4.97918 23.125 8.5C23.125 12.0208 25.9792 14.875 29.5 14.875Z" fill="white"/>
<path d="M29.5 12.75C29.9401 12.75 30.2969 12.3932 30.2969 11.9531C30.2969 11.513 29.9401 11.1562 29.5 11.1562C29.0599 11.1562 28.7031 11.513 28.7031 11.9531C28.7031 12.3932 29.0599 12.75 29.5 12.75Z" fill="black"/>
<path d="M29.5 9.56299V9.03174C29.8677 9.03174 30.2272 8.92269 30.533 8.71838C30.8388 8.51407 31.0771 8.22367 31.2178 7.88392C31.3586 7.54416 31.3954 7.1703 31.3236 6.80962C31.2519 6.44893 31.0748 6.11763 30.8148 5.85759C30.5547 5.59755 30.2234 5.42046 29.8627 5.34872C29.5021 5.27697 29.1282 5.31379 28.7884 5.45453C28.4487 5.59526 28.1583 5.83358 27.954 6.13935C27.7497 6.44512 27.6406 6.80461 27.6406 7.17236" stroke="black" stroke-width="1.5" stroke-linecap="round" stroke-linejoin="round"/>
</svg>
